{
	"asset":{
		"generator":"Khronos glTF Blender I/O v4.4.56",
		"version":"2.0"
	},
	"scene":0,
	"scenes":[
		{
			"extras":{
				"dropdown_items":"character, default",
				"entity_dropdown":1,
				"physics_dropdown":0,
				"sensor_checkbox":0,
				"solid_checkbox":0,
				"invisible_checkbox":0
			},
			"name":"Scene",
			"nodes":[
				1
			]
		}
	],
	"nodes":[
		{
			"extras":{
				"entity_type":"default",
				"physics_type":"static",
				"is_sensor":false,
				"is_solid":false,
				"is_invisible":false
			},
			"mesh":0,
			"name":"Lever",
			"translation":[
				0,
				-0.024294106289744377,
				0.0005999703425914049
			]
		},
		{
			"children":[
				0
			],
			"extras":{
				"entity_type":"default",
				"physics_type":"static",
				"is_sensor":false,
				"is_solid":false,
				"is_invisible":false
			},
			"mesh":1,
			"name":"Backplate"
		}
	],
	"materials":[
		{
			"doubleSided":true,
			"name":"Handle Red",
			"normalTexture":{
				"index":0
			},
			"pbrMetallicRoughness":{
				"baseColorTexture":{
					"index":1
				},
				"metallicRoughnessTexture":{
					"index":2
				}
			}
		},
		{
			"doubleSided":true,
			"name":"backplate",
			"normalTexture":{
				"index":3
			},
			"pbrMetallicRoughness":{
				"baseColorTexture":{
					"index":4
				},
				"metallicRoughnessTexture":{
					"index":5
				}
			}
		}
	],
	"meshes":[
		{
			"name":"Lever",
			"primitives":[
				{
					"attributes":{
						"POSITION":0,
						"NORMAL":1,
						"TEXCOORD_0":2,
						"COLOR_0":3,
						"COLOR_1":4,
						"COLOR_2":5
					},
					"indices":6,
					"material":0
				}
			]
		},
		{
			"name":"Backplate",
			"primitives":[
				{
					"attributes":{
						"POSITION":7,
						"NORMAL":8,
						"TEXCOORD_0":9,
						"TANGENT":10,
						"COLOR_0":11,
						"COLOR_1":12,
						"COLOR_2":13
					},
					"indices":14,
					"material":1
				},
				{
					"attributes":{
						"POSITION":15,
						"NORMAL":16,
						"TEXCOORD_0":17,
						"TANGENT":18,
						"COLOR_0":19,
						"COLOR_1":20,
						"COLOR_2":21
					},
					"indices":22,
					"material":0
				}
			]
		}
	],
	"textures":[
		{
			"sampler":0,
			"source":0
		},
		{
			"sampler":0,
			"source":1
		},
		{
			"sampler":0,
			"source":2
		},
		{
			"sampler":0,
			"source":3
		},
		{
			"sampler":0,
			"source":4
		},
		{
			"sampler":0,
			"source":5
		}
	],
	"images":[
		{
			"mimeType":"image/png",
			"name":"Lever_switch_Normal",
			"uri":"Lever_switch_Normal.png"
		},
		{
			"mimeType":"image/png",
			"name":"Lever_switch_color",
			"uri":"Lever_switch_color.png"
		},
		{
			"mimeType":"image/png",
			"name":"Lever_metallicRoughness",
			"uri":"Lever_metallicRoughness.png"
		},
		{
			"mimeType":"image/png",
			"name":"leverbox_Normal",
			"uri":"leverbox_Normal.png"
		},
		{
			"mimeType":"image/png",
			"name":"leverbox_color",
			"uri":"leverbox_color.png"
		},
		{
			"mimeType":"image/png",
			"name":"leverbox_metallicRoughness",
			"uri":"leverbox_metallicRoughness.png"
		}
	],
	"accessors":[
		{
			"bufferView":0,
			"componentType":5126,
			"count":391,
			"max":[
				1.7706302404403687,
				0.10858090966939926,
				0.5994000434875488
			],
			"min":[
				-0.09672117233276367,
				-0.11523407697677612,
				-0.6006001830101013
			],
			"type":"VEC3"
		},
		{
			"bufferView":1,
			"componentType":5126,
			"count":391,
			"type":"VEC3"
		},
		{
			"bufferView":2,
			"componentType":5126,
			"count":391,
			"type":"VEC2"
		},
		{
			"bufferView":3,
			"componentType":5121,
			"count":391,
			"normalized":true,
			"type":"VEC4"
		},
		{
			"bufferView":4,
			"componentType":5123,
			"count":391,
			"normalized":true,
			"type":"VEC4"
		},
		{
			"bufferView":5,
			"componentType":5123,
			"count":391,
			"normalized":true,
			"type":"VEC4"
		},
		{
			"bufferView":6,
			"componentType":5123,
			"count":1062,
			"type":"SCALAR"
		},
		{
			"bufferView":7,
			"componentType":5126,
			"count":867,
			"max":[
				0.14635704457759857,
				1.9544270038604736,
				0.9874771237373352
			],
			"min":[
				-0.29635709524154663,
				-1.71442711353302,
				-0.9837273359298706
			],
			"type":"VEC3"
		},
		{
			"bufferView":8,
			"componentType":5126,
			"count":867,
			"type":"VEC3"
		},
		{
			"bufferView":9,
			"componentType":5126,
			"count":867,
			"type":"VEC2"
		},
		{
			"bufferView":10,
			"componentType":5126,
			"count":867,
			"type":"VEC4"
		},
		{
			"bufferView":11,
			"componentType":5121,
			"count":867,
			"normalized":true,
			"type":"VEC4"
		},
		{
			"bufferView":12,
			"componentType":5123,
			"count":867,
			"normalized":true,
			"type":"VEC4"
		},
		{
			"bufferView":13,
			"componentType":5123,
			"count":867,
			"normalized":true,
			"type":"VEC4"
		},
		{
			"bufferView":14,
			"componentType":5123,
			"count":1896,
			"type":"SCALAR"
		},
		{
			"bufferView":15,
			"componentType":5126,
			"count":80,
			"max":[
				-0.0031563732773065567,
				0.8345495462417603,
				0.4220658540725708
			],
			"min":[
				-0.20413336157798767,
				-0.8974382281303406,
				-0.42178410291671753
			],
			"type":"VEC3"
		},
		{
			"bufferView":16,
			"componentType":5126,
			"count":80,
			"type":"VEC3"
		},
		{
			"bufferView":17,
			"componentType":5126,
			"count":80,
			"type":"VEC2"
		},
		{
			"bufferView":18,
			"componentType":5126,
			"count":80,
			"type":"VEC4"
		},
		{
			"bufferView":19,
			"componentType":5121,
			"count":80,
			"normalized":true,
			"type":"VEC4"
		},
		{
			"bufferView":20,
			"componentType":5123,
			"count":80,
			"normalized":true,
			"type":"VEC4"
		},
		{
			"bufferView":21,
			"componentType":5123,
			"count":80,
			"normalized":true,
			"type":"VEC4"
		},
		{
			"bufferView":22,
			"componentType":5123,
			"count":120,
			"type":"SCALAR"
		}
	],
	"bufferViews":[
		{
			"buffer":0,
			"byteLength":4692,
			"byteOffset":0,
			"target":34962
		},
		{
			"buffer":0,
			"byteLength":4692,
			"byteOffset":4692,
			"target":34962
		},
		{
			"buffer":0,
			"byteLength":3128,
			"byteOffset":9384,
			"target":34962
		},
		{
			"buffer":0,
			"byteLength":1564,
			"byteOffset":12512,
			"target":34962
		},
		{
			"buffer":0,
			"byteLength":3128,
			"byteOffset":14076,
			"target":34962
		},
		{
			"buffer":0,
			"byteLength":3128,
			"byteOffset":17204,
			"target":34962
		},
		{
			"buffer":0,
			"byteLength":2124,
			"byteOffset":20332,
			"target":34963
		},
		{
			"buffer":0,
			"byteLength":10404,
			"byteOffset":22456,
			"target":34962
		},
		{
			"buffer":0,
			"byteLength":10404,
			"byteOffset":32860,
			"target":34962
		},
		{
			"buffer":0,
			"byteLength":6936,
			"byteOffset":43264,
			"target":34962
		},
		{
			"buffer":0,
			"byteLength":13872,
			"byteOffset":50200,
			"target":34962
		},
		{
			"buffer":0,
			"byteLength":3468,
			"byteOffset":64072,
			"target":34962
		},
		{
			"buffer":0,
			"byteLength":6936,
			"byteOffset":67540,
			"target":34962
		},
		{
			"buffer":0,
			"byteLength":6936,
			"byteOffset":74476,
			"target":34962
		},
		{
			"buffer":0,
			"byteLength":3792,
			"byteOffset":81412,
			"target":34963
		},
		{
			"buffer":0,
			"byteLength":960,
			"byteOffset":85204,
			"target":34962
		},
		{
			"buffer":0,
			"byteLength":960,
			"byteOffset":86164,
			"target":34962
		},
		{
			"buffer":0,
			"byteLength":640,
			"byteOffset":87124,
			"target":34962
		},
		{
			"buffer":0,
			"byteLength":1280,
			"byteOffset":87764,
			"target":34962
		},
		{
			"buffer":0,
			"byteLength":320,
			"byteOffset":89044,
			"target":34962
		},
		{
			"buffer":0,
			"byteLength":640,
			"byteOffset":89364,
			"target":34962
		},
		{
			"buffer":0,
			"byteLength":640,
			"byteOffset":90004,
			"target":34962
		},
		{
			"buffer":0,
			"byteLength":240,
			"byteOffset":90644,
			"target":34963
		}
	],
	"samplers":[
		{
			"magFilter":9729,
			"minFilter":9987
		}
	],
	"buffers":[
		{
			"byteLength":90884,
			"uri":"lever_sample.bin"
		}
	]
}
