{
	"asset":{
		"generator":"Khronos glTF Blender I/O v4.4.55",
		"version":"2.0"
	},
	"scene":0,
	"scenes":[
		{
			"name":"Scene",
			"nodes":[
				0,
				1,
				2
			]
		}
	],
	"nodes":[
		{
			"mesh":0,
			"name":"PendulumBlade",
			"rotation":[
				0.6532815098762512,
				-0.2705981433391571,
				-0.2705981135368347,
				0.6532814502716064
			],
			"translation":[
				0,
				3.6700000762939453,
				0
			]
		},
		{
			"mesh":1,
			"name":"PendulumHolder",
			"rotation":[
				0.70710688829422,
				0,
				0,
				0.7071066498756409
			],
			"scale":[
				0.19999998807907104,
				0.20000001788139343,
				0.20000001788139343
			],
			"translation":[
				0.0032246368937194347,
				3.573768138885498,
				0
			]
		},
		{
			"mesh":2,
			"name":"PendulumPole",
			"rotation":[
				0.6532815098762512,
				-0.2705981433391571,
				-0.2705981135368347,
				0.6532814502716064
			],
			"translation":[
				0,
				3.6700000762939453,
				0
			]
		}
	],
	"materials":[
		{
			"doubleSided":true,
			"name":"aCG_Metal055A_1K_PNG",
			"normalTexture":{
				"index":0
			},
			"pbrMetallicRoughness":{
				"baseColorTexture":{
					"index":1
				},
				"metallicRoughnessTexture":{
					"index":2
				}
			}
		},
		{
			"doubleSided":true,
			"name":"aCG_Wood077_1K_PNG",
			"normalTexture":{
				"index":3
			},
			"pbrMetallicRoughness":{
				"baseColorTexture":{
					"index":4
				},
				"metallicFactor":0,
				"metallicRoughnessTexture":{
					"index":5
				}
			}
		},
		{
			"doubleSided":true,
			"name":"aCG_Wood035_1K_PNG",
			"normalTexture":{
				"index":6
			},
			"pbrMetallicRoughness":{
				"baseColorTexture":{
					"index":7
				},
				"metallicFactor":0,
				"metallicRoughnessTexture":{
					"index":8
				}
			}
		}
	],
	"meshes":[
		{
			"name":"Cylinder.011",
			"primitives":[
				{
					"attributes":{
						"POSITION":0,
						"NORMAL":1,
						"TEXCOORD_0":2,
						"TANGENT":3
					},
					"indices":4,
					"material":0
				}
			]
		},
		{
			"name":"Cylinder.022",
			"primitives":[
				{
					"attributes":{
						"POSITION":5,
						"NORMAL":6,
						"TEXCOORD_0":7,
						"TANGENT":8
					},
					"indices":9,
					"material":1
				}
			]
		},
		{
			"name":"Cylinder.001",
			"primitives":[
				{
					"attributes":{
						"POSITION":10,
						"NORMAL":11,
						"TEXCOORD_0":12,
						"TANGENT":13
					},
					"indices":14,
					"material":2
				}
			]
		}
	],
	"textures":[
		{
			"sampler":0,
			"source":0
		},
		{
			"sampler":0,
			"source":1
		},
		{
			"sampler":0,
			"source":2
		},
		{
			"sampler":0,
			"source":3
		},
		{
			"sampler":0,
			"source":4
		},
		{
			"sampler":0,
			"source":5
		},
		{
			"sampler":0,
			"source":6
		},
		{
			"sampler":0,
			"source":7
		},
		{
			"sampler":0,
			"source":8
		}
	],
	"images":[
		{
			"mimeType":"image/png",
			"name":"Metal055A_1K-PNG_NormalGL",
			"uri":"Metal055A_1K-PNG_NormalGL.png"
		},
		{
			"mimeType":"image/png",
			"name":"pendulum",
			"uri":"pendulum.png"
		},
		{
			"mimeType":"image/png",
			"name":"Metal055A_1K-PNG_Metalness-Metal055A_1K-PNG_Roughness",
			"uri":"Metal055A_1K-PNG_Metalness-Metal055A_1K-PNG_Roughness.png"
		},
		{
			"mimeType":"image/png",
			"name":"Wood077_1K-PNG_NormalGL",
			"uri":"Wood077_1K-PNG_NormalGL.png"
		},
		{
			"mimeType":"image/png",
			"name":"Wood077_1K-PNG_Color",
			"uri":"Wood077_1K-PNG_Color.png"
		},
		{
			"mimeType":"image/png",
			"name":"Wood077_1K-PNG_Roughness",
			"uri":"Wood077_1K-PNG_Roughness.png"
		},
		{
			"mimeType":"image/png",
			"name":"Wood035_1K-PNG_NormalGL",
			"uri":"Wood035_1K-PNG_NormalGL.png"
		},
		{
			"mimeType":"image/png",
			"name":"Wood035_1K-PNG_Color",
			"uri":"Wood035_1K-PNG_Color.png"
		},
		{
			"mimeType":"image/png",
			"name":"Wood035_1K-PNG_Roughness",
			"uri":"Wood035_1K-PNG_Roughness.png"
		}
	],
	"accessors":[
		{
			"bufferView":0,
			"componentType":5126,
			"count":118,
			"max":[
				0.9999999403953552,
				0.0499998964369297,
				3.3276565074920654
			],
			"min":[
				-1,
				-0.05000006780028343,
				2.3276565074920654
			],
			"type":"VEC3"
		},
		{
			"bufferView":1,
			"componentType":5126,
			"count":118,
			"type":"VEC3"
		},
		{
			"bufferView":2,
			"componentType":5126,
			"count":118,
			"type":"VEC2"
		},
		{
			"bufferView":3,
			"componentType":5126,
			"count":118,
			"type":"VEC4"
		},
		{
			"bufferView":4,
			"componentType":5123,
			"count":198,
			"type":"SCALAR"
		},
		{
			"bufferView":5,
			"componentType":5126,
			"count":328,
			"max":[
				0.9838768243789673,
				0.850000262260437,
				0.8188406229019165
			],
			"min":[
				-1.0161231756210327,
				-0.8500000834465027,
				-1.631159782409668
			],
			"type":"VEC3"
		},
		{
			"bufferView":6,
			"componentType":5126,
			"count":328,
			"type":"VEC3"
		},
		{
			"bufferView":7,
			"componentType":5126,
			"count":328,
			"type":"VEC2"
		},
		{
			"bufferView":8,
			"componentType":5126,
			"count":328,
			"type":"VEC4"
		},
		{
			"bufferView":9,
			"componentType":5123,
			"count":810,
			"type":"SCALAR"
		},
		{
			"bufferView":10,
			"componentType":5126,
			"count":40,
			"max":[
				0.08999998867511749,
				0.060500141233205795,
				2.870000123977661
			],
			"min":[
				-0.09000023454427719,
				-0.060500018298625946,
				-0.029999732971191406
			],
			"type":"VEC3"
		},
		{
			"bufferView":11,
			"componentType":5126,
			"count":40,
			"type":"VEC3"
		},
		{
			"bufferView":12,
			"componentType":5126,
			"count":40,
			"type":"VEC2"
		},
		{
			"bufferView":13,
			"componentType":5126,
			"count":40,
			"type":"VEC4"
		},
		{
			"bufferView":14,
			"componentType":5123,
			"count":60,
			"type":"SCALAR"
		}
	],
	"bufferViews":[
		{
			"buffer":0,
			"byteLength":1416,
			"byteOffset":0,
			"target":34962
		},
		{
			"buffer":0,
			"byteLength":1416,
			"byteOffset":1416,
			"target":34962
		},
		{
			"buffer":0,
			"byteLength":944,
			"byteOffset":2832,
			"target":34962
		},
		{
			"buffer":0,
			"byteLength":1888,
			"byteOffset":3776,
			"target":34962
		},
		{
			"buffer":0,
			"byteLength":396,
			"byteOffset":5664,
			"target":34963
		},
		{
			"buffer":0,
			"byteLength":3936,
			"byteOffset":6060,
			"target":34962
		},
		{
			"buffer":0,
			"byteLength":3936,
			"byteOffset":9996,
			"target":34962
		},
		{
			"buffer":0,
			"byteLength":2624,
			"byteOffset":13932,
			"target":34962
		},
		{
			"buffer":0,
			"byteLength":5248,
			"byteOffset":16556,
			"target":34962
		},
		{
			"buffer":0,
			"byteLength":1620,
			"byteOffset":21804,
			"target":34963
		},
		{
			"buffer":0,
			"byteLength":480,
			"byteOffset":23424,
			"target":34962
		},
		{
			"buffer":0,
			"byteLength":480,
			"byteOffset":23904,
			"target":34962
		},
		{
			"buffer":0,
			"byteLength":320,
			"byteOffset":24384,
			"target":34962
		},
		{
			"buffer":0,
			"byteLength":640,
			"byteOffset":24704,
			"target":34962
		},
		{
			"buffer":0,
			"byteLength":120,
			"byteOffset":25344,
			"target":34963
		}
	],
	"samplers":[
		{
			"magFilter":9729,
			"minFilter":9987
		}
	],
	"buffers":[
		{
			"byteLength":25464,
			"uri":"axe.bin"
		}
	]
}
