{
	"asset":{
		"generator":"Khronos glTF Blender I/O v4.3.47",
		"version":"2.0"
	},
	"scene":0,
	"scenes":[
		{
			"name":"Scene",
			"nodes":[
				35,
				36
			]
		}
	],
	"nodes":[
		{
			"mesh":0,
			"name":"Object_10"
		},
		{
			"mesh":1,
			"name":"Object_11"
		},
		{
			"mesh":2,
			"name":"Object_12"
		},
		{
			"mesh":3,
			"name":"Object_13"
		},
		{
			"mesh":4,
			"name":"Object_14"
		},
		{
			"mesh":5,
			"name":"Object_15"
		},
		{
			"mesh":6,
			"name":"Object_16"
		},
		{
			"mesh":7,
			"name":"Object_17"
		},
		{
			"mesh":8,
			"name":"Object_18"
		},
		{
			"mesh":9,
			"name":"Object_19"
		},
		{
			"mesh":10,
			"name":"Object_2"
		},
		{
			"mesh":11,
			"name":"Object_20"
		},
		{
			"mesh":12,
			"name":"Object_21"
		},
		{
			"mesh":13,
			"name":"Object_22"
		},
		{
			"mesh":14,
			"name":"Object_23"
		},
		{
			"mesh":15,
			"name":"Object_24"
		},
		{
			"mesh":16,
			"name":"Object_25"
		},
		{
			"mesh":17,
			"name":"Object_26"
		},
		{
			"mesh":18,
			"name":"Object_27"
		},
		{
			"mesh":19,
			"name":"Object_28"
		},
		{
			"mesh":20,
			"name":"Object_29"
		},
		{
			"mesh":21,
			"name":"Object_3"
		},
		{
			"mesh":22,
			"name":"Object_30"
		},
		{
			"mesh":23,
			"name":"Object_31"
		},
		{
			"mesh":24,
			"name":"Object_32"
		},
		{
			"mesh":25,
			"name":"Object_33"
		},
		{
			"mesh":26,
			"name":"Object_34"
		},
		{
			"mesh":27,
			"name":"Object_35"
		},
		{
			"mesh":28,
			"name":"Object_4"
		},
		{
			"mesh":29,
			"name":"Object_5"
		},
		{
			"mesh":30,
			"name":"Object_6"
		},
		{
			"mesh":31,
			"name":"Object_7"
		},
		{
			"mesh":32,
			"name":"Object_8"
		},
		{
			"mesh":33,
			"name":"Object_9"
		},
		{
			"children":[
				0,
				1,
				2,
				3,
				4,
				5,
				6,
				7,
				8,
				9,
				10,
				11,
				12,
				13,
				14,
				15,
				16,
				17,
				18,
				19,
				20,
				21,
				22,
				23,
				24,
				25,
				26,
				27,
				28,
				29,
				30,
				31,
				32,
				33
			],
			"name":"de_dust2.obj.cleaner.materialmerger.gles"
		},
		{
			"children":[
				34
			],
			"name":"Sketchfab_model",
			"rotation":[
				-1,
				0,
				0,
				2.220446049250313e-16
			],
			"scale":[
				0.013333333656191826,
				0.013333333656191826,
				0.013333333656191826
			]
		},
		{
			"mesh":34,
			"name":"Character"
		}
	],
	"materials":[
		{
			"doubleSided":true,
			"name":"material_17",
			"pbrMetallicRoughness":{
				"baseColorTexture":{
					"index":0
				},
				"metallicFactor":0
			}
		},
		{
			"doubleSided":true,
			"name":"material_18",
			"pbrMetallicRoughness":{
				"baseColorTexture":{
					"index":1
				},
				"metallicFactor":0
			}
		},
		{
			"doubleSided":true,
			"name":"material_19",
			"pbrMetallicRoughness":{
				"baseColorTexture":{
					"index":2
				},
				"metallicFactor":0
			}
		},
		{
			"doubleSided":true,
			"name":"material_20",
			"pbrMetallicRoughness":{
				"baseColorTexture":{
					"index":3
				},
				"metallicFactor":0
			}
		},
		{
			"doubleSided":true,
			"name":"material_22",
			"pbrMetallicRoughness":{
				"baseColorTexture":{
					"index":4
				},
				"metallicFactor":0
			}
		},
		{
			"doubleSided":true,
			"name":"material_23",
			"pbrMetallicRoughness":{
				"baseColorTexture":{
					"index":5
				},
				"metallicFactor":0
			}
		},
		{
			"doubleSided":true,
			"name":"material_24",
			"pbrMetallicRoughness":{
				"baseColorTexture":{
					"index":6
				},
				"metallicFactor":0
			}
		},
		{
			"doubleSided":true,
			"name":"material_25",
			"pbrMetallicRoughness":{
				"baseColorTexture":{
					"index":7
				},
				"metallicFactor":0
			}
		},
		{
			"doubleSided":true,
			"name":"material_26",
			"pbrMetallicRoughness":{
				"baseColorTexture":{
					"index":8
				},
				"metallicFactor":0
			}
		},
		{
			"doubleSided":true,
			"name":"material_27",
			"pbrMetallicRoughness":{
				"baseColorTexture":{
					"index":9
				},
				"metallicFactor":0
			}
		},
		{
			"doubleSided":true,
			"name":"material_0",
			"pbrMetallicRoughness":{
				"baseColorTexture":{
					"index":10
				},
				"metallicFactor":0
			}
		},
		{
			"doubleSided":true,
			"name":"material_28",
			"pbrMetallicRoughness":{
				"baseColorTexture":{
					"index":11
				},
				"metallicFactor":0
			}
		},
		{
			"doubleSided":true,
			"name":"material_29",
			"pbrMetallicRoughness":{
				"baseColorTexture":{
					"index":12
				},
				"metallicFactor":0
			}
		},
		{
			"doubleSided":true,
			"name":"material_3",
			"pbrMetallicRoughness":{
				"baseColorTexture":{
					"index":13
				},
				"metallicFactor":0
			}
		},
		{
			"doubleSided":true,
			"name":"material_30",
			"pbrMetallicRoughness":{
				"baseColorTexture":{
					"index":14
				},
				"metallicFactor":0
			}
		},
		{
			"doubleSided":true,
			"name":"material_4",
			"pbrMetallicRoughness":{
				"baseColorTexture":{
					"index":15
				},
				"metallicFactor":0
			}
		},
		{
			"doubleSided":true,
			"name":"material_5",
			"pbrMetallicRoughness":{
				"baseColorTexture":{
					"index":16
				},
				"metallicFactor":0
			}
		},
		{
			"doubleSided":true,
			"name":"material_6",
			"pbrMetallicRoughness":{
				"baseColorTexture":{
					"index":17
				},
				"metallicFactor":0
			}
		},
		{
			"doubleSided":true,
			"name":"material_7",
			"pbrMetallicRoughness":{
				"baseColorTexture":{
					"index":18
				},
				"metallicFactor":0
			}
		},
		{
			"doubleSided":true,
			"name":"material_8",
			"pbrMetallicRoughness":{
				"baseColorTexture":{
					"index":19
				},
				"metallicFactor":0
			}
		},
		{
			"doubleSided":true,
			"name":"material_1",
			"pbrMetallicRoughness":{
				"baseColorTexture":{
					"index":20
				},
				"metallicFactor":0
			}
		},
		{
			"doubleSided":true,
			"name":"material_10",
			"pbrMetallicRoughness":{
				"baseColorTexture":{
					"index":21
				},
				"metallicFactor":0
			}
		},
		{
			"doubleSided":true,
			"name":"material_2",
			"pbrMetallicRoughness":{
				"baseColorTexture":{
					"index":22
				},
				"metallicFactor":0
			}
		},
		{
			"doubleSided":true,
			"name":"material_21",
			"pbrMetallicRoughness":{
				"baseColorTexture":{
					"index":23
				},
				"metallicFactor":0
			}
		},
		{
			"name":"material_31",
			"pbrMetallicRoughness":{
				"baseColorTexture":{
					"index":24
				},
				"metallicFactor":0
			}
		},
		{
			"doubleSided":true,
			"name":"material_32",
			"pbrMetallicRoughness":{
				"baseColorTexture":{
					"index":25
				},
				"metallicFactor":0
			}
		},
		{
			"doubleSided":true,
			"name":"material_33",
			"pbrMetallicRoughness":{
				"baseColorTexture":{
					"index":26
				},
				"metallicFactor":0
			}
		},
		{
			"doubleSided":true,
			"name":"material_9",
			"pbrMetallicRoughness":{
				"baseColorTexture":{
					"index":27
				},
				"metallicFactor":0
			}
		},
		{
			"doubleSided":true,
			"name":"material_11",
			"pbrMetallicRoughness":{
				"baseColorTexture":{
					"index":28
				},
				"metallicFactor":0
			}
		},
		{
			"doubleSided":true,
			"name":"material_12",
			"pbrMetallicRoughness":{
				"baseColorTexture":{
					"index":29
				},
				"metallicFactor":0
			}
		},
		{
			"doubleSided":true,
			"name":"material_13",
			"pbrMetallicRoughness":{
				"baseColorTexture":{
					"index":30
				},
				"metallicFactor":0
			}
		},
		{
			"doubleSided":true,
			"name":"material_14",
			"pbrMetallicRoughness":{
				"baseColorTexture":{
					"index":31
				},
				"metallicFactor":0
			}
		},
		{
			"doubleSided":true,
			"name":"material_15",
			"pbrMetallicRoughness":{
				"baseColorTexture":{
					"index":32
				},
				"metallicFactor":0
			}
		},
		{
			"doubleSided":true,
			"name":"material_16",
			"pbrMetallicRoughness":{
				"baseColorTexture":{
					"index":33
				},
				"metallicFactor":0
			}
		},
		{
			"doubleSided":true,
			"name":"Material.001",
			"pbrMetallicRoughness":{
				"baseColorFactor":[
					0.800000011920929,
					0.800000011920929,
					0.800000011920929,
					1
				],
				"metallicFactor":0,
				"roughnessFactor":0.5
			}
		}
	],
	"meshes":[
		{
			"name":"Object_8",
			"primitives":[
				{
					"attributes":{
						"POSITION":0,
						"NORMAL":1,
						"TEXCOORD_0":2
					},
					"indices":3,
					"material":0
				}
			]
		},
		{
			"name":"Object_9",
			"primitives":[
				{
					"attributes":{
						"POSITION":4,
						"NORMAL":5,
						"TEXCOORD_0":6
					},
					"indices":7,
					"material":1
				}
			]
		},
		{
			"name":"Object_10",
			"primitives":[
				{
					"attributes":{
						"POSITION":8,
						"NORMAL":9,
						"TEXCOORD_0":10
					},
					"indices":11,
					"material":2
				}
			]
		},
		{
			"name":"Object_11",
			"primitives":[
				{
					"attributes":{
						"POSITION":12,
						"NORMAL":13,
						"TEXCOORD_0":14
					},
					"indices":15,
					"material":3
				}
			]
		},
		{
			"name":"Object_12",
			"primitives":[
				{
					"attributes":{
						"POSITION":16,
						"NORMAL":17,
						"TEXCOORD_0":18
					},
					"indices":19,
					"material":4
				}
			]
		},
		{
			"name":"Object_13",
			"primitives":[
				{
					"attributes":{
						"POSITION":20,
						"NORMAL":21,
						"TEXCOORD_0":22
					},
					"indices":23,
					"material":5
				}
			]
		},
		{
			"name":"Object_14",
			"primitives":[
				{
					"attributes":{
						"POSITION":24,
						"NORMAL":25,
						"TEXCOORD_0":26
					},
					"indices":27,
					"material":6
				}
			]
		},
		{
			"name":"Object_15",
			"primitives":[
				{
					"attributes":{
						"POSITION":28,
						"NORMAL":29,
						"TEXCOORD_0":30
					},
					"indices":31,
					"material":7
				}
			]
		},
		{
			"name":"Object_16",
			"primitives":[
				{
					"attributes":{
						"POSITION":32,
						"NORMAL":33,
						"TEXCOORD_0":34
					},
					"indices":35,
					"material":8
				}
			]
		},
		{
			"name":"Object_17",
			"primitives":[
				{
					"attributes":{
						"POSITION":36,
						"NORMAL":37,
						"TEXCOORD_0":38
					},
					"indices":39,
					"material":9
				}
			]
		},
		{
			"name":"Object_0",
			"primitives":[
				{
					"attributes":{
						"POSITION":40,
						"NORMAL":41,
						"TEXCOORD_0":42
					},
					"indices":43,
					"material":10
				}
			]
		},
		{
			"name":"Object_18",
			"primitives":[
				{
					"attributes":{
						"POSITION":44,
						"NORMAL":45,
						"TEXCOORD_0":46
					},
					"indices":47,
					"material":11
				}
			]
		},
		{
			"name":"Object_19",
			"primitives":[
				{
					"attributes":{
						"POSITION":48,
						"NORMAL":49,
						"TEXCOORD_0":50
					},
					"indices":51,
					"material":12
				}
			]
		},
		{
			"name":"Object_20",
			"primitives":[
				{
					"attributes":{
						"POSITION":52,
						"NORMAL":53,
						"TEXCOORD_0":54
					},
					"indices":55,
					"material":13
				}
			]
		},
		{
			"name":"Object_21",
			"primitives":[
				{
					"attributes":{
						"POSITION":56,
						"NORMAL":57,
						"TEXCOORD_0":58
					},
					"indices":59,
					"material":14
				}
			]
		},
		{
			"name":"Object_22",
			"primitives":[
				{
					"attributes":{
						"POSITION":60,
						"NORMAL":61,
						"TEXCOORD_0":62
					},
					"indices":63,
					"material":15
				}
			]
		},
		{
			"name":"Object_23",
			"primitives":[
				{
					"attributes":{
						"POSITION":64,
						"NORMAL":65,
						"TEXCOORD_0":66
					},
					"indices":67,
					"material":16
				}
			]
		},
		{
			"name":"Object_24",
			"primitives":[
				{
					"attributes":{
						"POSITION":68,
						"NORMAL":69,
						"TEXCOORD_0":70
					},
					"indices":71,
					"material":17
				}
			]
		},
		{
			"name":"Object_25",
			"primitives":[
				{
					"attributes":{
						"POSITION":72,
						"NORMAL":73,
						"TEXCOORD_0":74
					},
					"indices":75,
					"material":18
				}
			]
		},
		{
			"name":"Object_26",
			"primitives":[
				{
					"attributes":{
						"POSITION":76,
						"NORMAL":77,
						"TEXCOORD_0":78
					},
					"indices":79,
					"material":19
				}
			]
		},
		{
			"name":"Object_27",
			"primitives":[
				{
					"attributes":{
						"POSITION":80,
						"NORMAL":81,
						"TEXCOORD_0":82
					},
					"indices":83,
					"material":20
				}
			]
		},
		{
			"name":"Object_1",
			"primitives":[
				{
					"attributes":{
						"POSITION":84,
						"NORMAL":85,
						"TEXCOORD_0":86
					},
					"indices":87,
					"material":21
				}
			]
		},
		{
			"name":"Object_28",
			"primitives":[
				{
					"attributes":{
						"POSITION":88,
						"NORMAL":89,
						"TEXCOORD_0":90
					},
					"indices":91,
					"material":22
				}
			]
		},
		{
			"name":"Object_29",
			"primitives":[
				{
					"attributes":{
						"POSITION":92,
						"NORMAL":93,
						"TEXCOORD_0":94
					},
					"indices":95,
					"material":23
				}
			]
		},
		{
			"name":"Object_30",
			"primitives":[
				{
					"attributes":{
						"POSITION":96,
						"NORMAL":97,
						"TEXCOORD_0":98
					},
					"indices":99,
					"material":24
				}
			]
		},
		{
			"name":"Object_31",
			"primitives":[
				{
					"attributes":{
						"POSITION":100,
						"NORMAL":101,
						"TEXCOORD_0":102
					},
					"indices":103,
					"material":25
				}
			]
		},
		{
			"name":"Object_32",
			"primitives":[
				{
					"attributes":{
						"POSITION":104,
						"NORMAL":105,
						"TEXCOORD_0":106
					},
					"indices":107,
					"material":26
				}
			]
		},
		{
			"name":"Object_33",
			"primitives":[
				{
					"attributes":{
						"POSITION":108,
						"NORMAL":109,
						"TEXCOORD_0":110
					},
					"indices":111,
					"material":27
				}
			]
		},
		{
			"name":"Object_2",
			"primitives":[
				{
					"attributes":{
						"POSITION":112,
						"NORMAL":113,
						"TEXCOORD_0":114
					},
					"indices":115,
					"material":28
				}
			]
		},
		{
			"name":"Object_3",
			"primitives":[
				{
					"attributes":{
						"POSITION":116,
						"NORMAL":117,
						"TEXCOORD_0":118
					},
					"indices":119,
					"material":29
				}
			]
		},
		{
			"name":"Object_4",
			"primitives":[
				{
					"attributes":{
						"POSITION":120,
						"NORMAL":121,
						"TEXCOORD_0":122
					},
					"indices":123,
					"material":30
				}
			]
		},
		{
			"name":"Object_5",
			"primitives":[
				{
					"attributes":{
						"POSITION":124,
						"NORMAL":125,
						"TEXCOORD_0":126
					},
					"indices":127,
					"material":31
				}
			]
		},
		{
			"name":"Object_6",
			"primitives":[
				{
					"attributes":{
						"POSITION":128,
						"NORMAL":129,
						"TEXCOORD_0":130
					},
					"indices":131,
					"material":32
				}
			]
		},
		{
			"name":"Object_7",
			"primitives":[
				{
					"attributes":{
						"POSITION":132,
						"NORMAL":133,
						"TEXCOORD_0":134
					},
					"indices":135,
					"material":33
				}
			]
		},
		{
			"name":"Cube.001",
			"primitives":[
				{
					"attributes":{
						"POSITION":136,
						"NORMAL":137,
						"TEXCOORD_0":138
					},
					"indices":139,
					"material":34
				}
			]
		}
	],
	"textures":[
		{
			"sampler":0,
			"source":0
		},
		{
			"sampler":0,
			"source":1
		},
		{
			"sampler":0,
			"source":2
		},
		{
			"sampler":0,
			"source":3
		},
		{
			"sampler":0,
			"source":4
		},
		{
			"sampler":0,
			"source":5
		},
		{
			"sampler":0,
			"source":6
		},
		{
			"sampler":0,
			"source":7
		},
		{
			"sampler":0,
			"source":8
		},
		{
			"sampler":0,
			"source":9
		},
		{
			"sampler":0,
			"source":10
		},
		{
			"sampler":0,
			"source":11
		},
		{
			"sampler":0,
			"source":12
		},
		{
			"sampler":0,
			"source":13
		},
		{
			"sampler":0,
			"source":14
		},
		{
			"sampler":0,
			"source":15
		},
		{
			"sampler":0,
			"source":16
		},
		{
			"sampler":0,
			"source":17
		},
		{
			"sampler":0,
			"source":18
		},
		{
			"sampler":0,
			"source":19
		},
		{
			"sampler":0,
			"source":20
		},
		{
			"sampler":0,
			"source":21
		},
		{
			"sampler":0,
			"source":22
		},
		{
			"sampler":0,
			"source":23
		},
		{
			"sampler":0,
			"source":24
		},
		{
			"sampler":0,
			"source":25
		},
		{
			"sampler":0,
			"source":26
		},
		{
			"sampler":0,
			"source":27
		},
		{
			"sampler":0,
			"source":28
		},
		{
			"sampler":0,
			"source":29
		},
		{
			"sampler":0,
			"source":30
		},
		{
			"sampler":0,
			"source":31
		},
		{
			"sampler":0,
			"source":32
		},
		{
			"sampler":0,
			"source":33
		}
	],
	"images":[
		{
			"mimeType":"image/png",
			"name":"material_17_baseColor",
			"uri":"textures/material_17_baseColor.png"
		},
		{
			"mimeType":"image/png",
			"name":"material_18_baseColor",
			"uri":"textures/material_18_baseColor.png"
		},
		{
			"mimeType":"image/png",
			"name":"material_19_baseColor",
			"uri":"textures/material_19_baseColor.png"
		},
		{
			"mimeType":"image/png",
			"name":"material_20_baseColor",
			"uri":"textures/material_20_baseColor.png"
		},
		{
			"mimeType":"image/png",
			"name":"material_22_baseColor",
			"uri":"textures/material_22_baseColor.png"
		},
		{
			"mimeType":"image/png",
			"name":"material_23_baseColor",
			"uri":"textures/material_23_baseColor.png"
		},
		{
			"mimeType":"image/png",
			"name":"material_24_baseColor",
			"uri":"textures/material_24_baseColor.png"
		},
		{
			"mimeType":"image/png",
			"name":"material_25_baseColor",
			"uri":"textures/material_25_baseColor.png"
		},
		{
			"mimeType":"image/png",
			"name":"material_26_baseColor",
			"uri":"textures/material_26_baseColor.png"
		},
		{
			"mimeType":"image/png",
			"name":"material_27_baseColor",
			"uri":"textures/material_27_baseColor.png"
		},
		{
			"mimeType":"image/png",
			"name":"material_0_baseColor",
			"uri":"textures/material_0_baseColor.png"
		},
		{
			"mimeType":"image/png",
			"name":"material_28_baseColor",
			"uri":"textures/material_28_baseColor.png"
		},
		{
			"mimeType":"image/png",
			"name":"material_29_baseColor",
			"uri":"textures/material_29_baseColor.png"
		},
		{
			"mimeType":"image/png",
			"name":"material_3_baseColor",
			"uri":"textures/material_3_baseColor.png"
		},
		{
			"mimeType":"image/png",
			"name":"material_30_baseColor",
			"uri":"textures/material_30_baseColor.png"
		},
		{
			"mimeType":"image/png",
			"name":"material_4_baseColor",
			"uri":"textures/material_4_baseColor.png"
		},
		{
			"mimeType":"image/png",
			"name":"material_5_baseColor",
			"uri":"textures/material_5_baseColor.png"
		},
		{
			"mimeType":"image/png",
			"name":"material_6_baseColor",
			"uri":"textures/material_6_baseColor.png"
		},
		{
			"mimeType":"image/png",
			"name":"material_7_baseColor",
			"uri":"textures/material_7_baseColor.png"
		},
		{
			"mimeType":"image/png",
			"name":"material_8_baseColor",
			"uri":"textures/material_8_baseColor.png"
		},
		{
			"mimeType":"image/png",
			"name":"material_1_baseColor",
			"uri":"textures/material_1_baseColor.png"
		},
		{
			"mimeType":"image/png",
			"name":"material_10_baseColor",
			"uri":"textures/material_10_baseColor.png"
		},
		{
			"mimeType":"image/png",
			"name":"material_2_baseColor",
			"uri":"textures/material_2_baseColor.png"
		},
		{
			"mimeType":"image/png",
			"name":"material_21_baseColor",
			"uri":"textures/material_21_baseColor.png"
		},
		{
			"mimeType":"image/png",
			"name":"material_31_baseColor",
			"uri":"textures/material_31_baseColor.png"
		},
		{
			"mimeType":"image/png",
			"name":"material_32_baseColor",
			"uri":"textures/material_32_baseColor.png"
		},
		{
			"mimeType":"image/png",
			"name":"material_33_baseColor",
			"uri":"textures/material_33_baseColor.png"
		},
		{
			"mimeType":"image/png",
			"name":"material_9_baseColor",
			"uri":"textures/material_9_baseColor.png"
		},
		{
			"mimeType":"image/png",
			"name":"material_11_baseColor",
			"uri":"textures/material_11_baseColor.png"
		},
		{
			"mimeType":"image/png",
			"name":"material_12_baseColor",
			"uri":"textures/material_12_baseColor.png"
		},
		{
			"mimeType":"image/png",
			"name":"material_13_baseColor",
			"uri":"textures/material_13_baseColor.png"
		},
		{
			"mimeType":"image/png",
			"name":"material_14_baseColor",
			"uri":"textures/material_14_baseColor.png"
		},
		{
			"mimeType":"image/png",
			"name":"material_15_baseColor",
			"uri":"textures/material_15_baseColor.png"
		},
		{
			"mimeType":"image/png",
			"name":"material_16_baseColor",
			"uri":"textures/material_16_baseColor.png"
		}
	],
	"accessors":[
		{
			"bufferView":0,
			"componentType":5126,
			"count":146,
			"max":[
				1792,
				32,
				3264
			],
			"min":[
				-2176,
				-256,
				-640
			],
			"type":"VEC3"
		},
		{
			"bufferView":1,
			"componentType":5126,
			"count":146,
			"type":"VEC3"
		},
		{
			"bufferView":2,
			"componentType":5126,
			"count":146,
			"type":"VEC2"
		},
		{
			"bufferView":3,
			"componentType":5123,
			"count":246,
			"type":"SCALAR"
		},
		{
			"bufferView":4,
			"componentType":5126,
			"count":22,
			"max":[
				448,
				96,
				2016
			],
			"min":[
				320,
				-32,
				2012
			],
			"type":"VEC3"
		},
		{
			"bufferView":5,
			"componentType":5126,
			"count":22,
			"type":"VEC3"
		},
		{
			"bufferView":6,
			"componentType":5126,
			"count":22,
			"type":"VEC2"
		},
		{
			"bufferView":7,
			"componentType":5123,
			"count":36,
			"type":"SCALAR"
		},
		{
			"bufferView":8,
			"componentType":5126,
			"count":9,
			"max":[
				448,
				96,
				2016
			],
			"min":[
				320,
				-32,
				2016
			],
			"type":"VEC3"
		},
		{
			"bufferView":9,
			"componentType":5126,
			"count":9,
			"type":"VEC3"
		},
		{
			"bufferView":10,
			"componentType":5126,
			"count":9,
			"type":"VEC2"
		},
		{
			"bufferView":11,
			"componentType":5123,
			"count":24,
			"type":"SCALAR"
		},
		{
			"bufferView":12,
			"componentType":5126,
			"count":88,
			"max":[
				-80,
				128,
				2560
			],
			"min":[
				-960,
				-128,
				256
			],
			"type":"VEC3"
		},
		{
			"bufferView":13,
			"componentType":5126,
			"count":88,
			"type":"VEC3"
		},
		{
			"bufferView":14,
			"componentType":5126,
			"count":88,
			"type":"VEC2"
		},
		{
			"bufferView":15,
			"componentType":5123,
			"count":144,
			"type":"SCALAR"
		},
		{
			"bufferView":16,
			"componentType":5126,
			"count":367,
			"max":[
				512,
				0,
				1792
			],
			"min":[
				-2240,
				-160,
				-1024
			],
			"type":"VEC3"
		},
		{
			"bufferView":17,
			"componentType":5126,
			"count":367,
			"type":"VEC3"
		},
		{
			"bufferView":18,
			"componentType":5126,
			"count":367,
			"type":"VEC2"
		},
		{
			"bufferView":19,
			"componentType":5123,
			"count":1044,
			"type":"SCALAR"
		},
		{
			"bufferView":20,
			"componentType":5126,
			"count":48,
			"max":[
				304,
				128,
				1637
			],
			"min":[
				-1408,
				-160,
				288
			],
			"type":"VEC3"
		},
		{
			"bufferView":21,
			"componentType":5126,
			"count":48,
			"type":"VEC3"
		},
		{
			"bufferView":22,
			"componentType":5126,
			"count":48,
			"type":"VEC2"
		},
		{
			"bufferView":23,
			"componentType":5123,
			"count":96,
			"type":"SCALAR"
		},
		{
			"bufferView":24,
			"componentType":5126,
			"count":7,
			"max":[
				-512,
				0,
				3584
			],
			"min":[
				-512,
				-128,
				3328
			],
			"type":"VEC3"
		},
		{
			"bufferView":25,
			"componentType":5126,
			"count":7,
			"type":"VEC3"
		},
		{
			"bufferView":26,
			"componentType":5126,
			"count":7,
			"type":"VEC2"
		},
		{
			"bufferView":27,
			"componentType":5123,
			"count":15,
			"type":"SCALAR"
		},
		{
			"bufferView":28,
			"componentType":5126,
			"count":12,
			"max":[
				-1472,
				0,
				2816
			],
			"min":[
				-1728,
				0,
				2560
			],
			"type":"VEC3"
		},
		{
			"bufferView":29,
			"componentType":5126,
			"count":12,
			"type":"VEC3"
		},
		{
			"bufferView":30,
			"componentType":5126,
			"count":12,
			"type":"VEC2"
		},
		{
			"bufferView":31,
			"componentType":5123,
			"count":33,
			"type":"SCALAR"
		},
		{
			"bufferView":32,
			"componentType":5126,
			"count":14,
			"max":[
				-1308,
				0,
				2272
			],
			"min":[
				-1349,
				-158.49000549316406,
				2184
			],
			"type":"VEC3"
		},
		{
			"bufferView":33,
			"componentType":5126,
			"count":14,
			"type":"VEC3"
		},
		{
			"bufferView":34,
			"componentType":5126,
			"count":14,
			"type":"VEC2"
		},
		{
			"bufferView":35,
			"componentType":5123,
			"count":15,
			"type":"SCALAR"
		},
		{
			"bufferView":36,
			"componentType":5126,
			"count":5,
			"max":[
				-2048,
				-32,
				1600
			],
			"min":[
				-2048,
				-192,
				1472
			],
			"type":"VEC3"
		},
		{
			"bufferView":37,
			"componentType":5126,
			"count":5,
			"type":"VEC3"
		},
		{
			"bufferView":38,
			"componentType":5126,
			"count":5,
			"type":"VEC2"
		},
		{
			"bufferView":39,
			"componentType":5123,
			"count":9,
			"type":"SCALAR"
		},
		{
			"bufferView":40,
			"componentType":5126,
			"count":2925,
			"max":[
				1920,
				192,
				3776
			],
			"min":[
				-2560,
				-416,
				-1536
			],
			"type":"VEC3"
		},
		{
			"bufferView":41,
			"componentType":5126,
			"count":2925,
			"type":"VEC3"
		},
		{
			"bufferView":42,
			"componentType":5126,
			"count":2925,
			"type":"VEC2"
		},
		{
			"bufferView":43,
			"componentType":5123,
			"count":5913,
			"type":"SCALAR"
		},
		{
			"bufferView":44,
			"componentType":5126,
			"count":22,
			"max":[
				1808,
				-16,
				608
			],
			"min":[
				144,
				-192,
				-176
			],
			"type":"VEC3"
		},
		{
			"bufferView":45,
			"componentType":5126,
			"count":22,
			"type":"VEC3"
		},
		{
			"bufferView":46,
			"componentType":5126,
			"count":22,
			"type":"VEC2"
		},
		{
			"bufferView":47,
			"componentType":5123,
			"count":54,
			"type":"SCALAR"
		},
		{
			"bufferView":48,
			"componentType":5126,
			"count":14,
			"max":[
				632,
				0,
				325
			],
			"min":[
				544,
				-158.49000549316406,
				284
			],
			"type":"VEC3"
		},
		{
			"bufferView":49,
			"componentType":5126,
			"count":14,
			"type":"VEC3"
		},
		{
			"bufferView":50,
			"componentType":5126,
			"count":14,
			"type":"VEC2"
		},
		{
			"bufferView":51,
			"componentType":5123,
			"count":15,
			"type":"SCALAR"
		},
		{
			"bufferView":52,
			"componentType":5126,
			"count":31,
			"max":[
				-384,
				0,
				3584
			],
			"min":[
				-512,
				-128,
				3328
			],
			"type":"VEC3"
		},
		{
			"bufferView":53,
			"componentType":5126,
			"count":31,
			"type":"VEC3"
		},
		{
			"bufferView":54,
			"componentType":5126,
			"count":31,
			"type":"VEC2"
		},
		{
			"bufferView":55,
			"componentType":5123,
			"count":63,
			"type":"SCALAR"
		},
		{
			"bufferView":56,
			"componentType":5126,
			"count":13,
			"max":[
				-2256,
				-128,
				-672
			],
			"min":[
				-2256,
				-288,
				-864
			],
			"type":"VEC3"
		},
		{
			"bufferView":57,
			"componentType":5126,
			"count":13,
			"type":"VEC3"
		},
		{
			"bufferView":58,
			"componentType":5126,
			"count":13,
			"type":"VEC2"
		},
		{
			"bufferView":59,
			"componentType":5123,
			"count":33,
			"type":"SCALAR"
		},
		{
			"bufferView":60,
			"componentType":5126,
			"count":238,
			"max":[
				1792,
				128,
				3648
			],
			"min":[
				-2240,
				-384,
				-992
			],
			"type":"VEC3"
		},
		{
			"bufferView":61,
			"componentType":5126,
			"count":238,
			"type":"VEC3"
		},
		{
			"bufferView":62,
			"componentType":5126,
			"count":238,
			"type":"VEC2"
		},
		{
			"bufferView":63,
			"componentType":5123,
			"count":492,
			"type":"SCALAR"
		},
		{
			"bufferView":64,
			"componentType":5126,
			"count":577,
			"max":[
				1536,
				192,
				3146.669921875
			],
			"min":[
				-2256,
				-128,
				-896
			],
			"type":"VEC3"
		},
		{
			"bufferView":65,
			"componentType":5126,
			"count":577,
			"type":"VEC3"
		},
		{
			"bufferView":66,
			"componentType":5126,
			"count":577,
			"type":"VEC2"
		},
		{
			"bufferView":67,
			"componentType":5123,
			"count":1830,
			"type":"SCALAR"
		},
		{
			"bufferView":68,
			"componentType":5126,
			"count":390,
			"max":[
				1792,
				192,
				3160
			],
			"min":[
				-2128.1201171875,
				-144,
				32
			],
			"type":"VEC3"
		},
		{
			"bufferView":69,
			"componentType":5126,
			"count":390,
			"type":"VEC3"
		},
		{
			"bufferView":70,
			"componentType":5126,
			"count":390,
			"type":"VEC2"
		},
		{
			"bufferView":71,
			"componentType":5123,
			"count":900,
			"type":"SCALAR"
		},
		{
			"bufferView":72,
			"componentType":5126,
			"count":242,
			"max":[
				1536,
				192,
				3088
			],
			"min":[
				-2128,
				-288,
				-864
			],
			"type":"VEC3"
		},
		{
			"bufferView":73,
			"componentType":5126,
			"count":242,
			"type":"VEC3"
		},
		{
			"bufferView":74,
			"componentType":5126,
			"count":242,
			"type":"VEC2"
		},
		{
			"bufferView":75,
			"componentType":5123,
			"count":405,
			"type":"SCALAR"
		},
		{
			"bufferView":76,
			"componentType":5126,
			"count":6,
			"max":[
				1024,
				-128,
				3072
			],
			"min":[
				1024,
				-320,
				2816
			],
			"type":"VEC3"
		},
		{
			"bufferView":77,
			"componentType":5126,
			"count":6,
			"type":"VEC3"
		},
		{
			"bufferView":78,
			"componentType":5126,
			"count":6,
			"type":"VEC2"
		},
		{
			"bufferView":79,
			"componentType":5123,
			"count":12,
			"type":"SCALAR"
		},
		{
			"bufferView":80,
			"componentType":5126,
			"count":4377,
			"max":[
				1920,
				192,
				3696
			],
			"min":[
				-2560,
				-384,
				-1536
			],
			"type":"VEC3"
		},
		{
			"bufferView":81,
			"componentType":5126,
			"count":4377,
			"type":"VEC3"
		},
		{
			"bufferView":82,
			"componentType":5126,
			"count":4377,
			"type":"VEC2"
		},
		{
			"bufferView":83,
			"componentType":5123,
			"count":10563,
			"type":"SCALAR"
		},
		{
			"bufferView":84,
			"componentType":5126,
			"count":830,
			"max":[
				1808,
				112,
				3776
			],
			"min":[
				-2560,
				-352,
				-1152
			],
			"type":"VEC3"
		},
		{
			"bufferView":85,
			"componentType":5126,
			"count":830,
			"type":"VEC3"
		},
		{
			"bufferView":86,
			"componentType":5126,
			"count":830,
			"type":"VEC2"
		},
		{
			"bufferView":87,
			"componentType":5123,
			"count":2163,
			"type":"SCALAR"
		},
		{
			"bufferView":88,
			"componentType":5126,
			"count":419,
			"max":[
				1792,
				192,
				3264
			],
			"min":[
				-2112,
				-256,
				-512
			],
			"type":"VEC3"
		},
		{
			"bufferView":89,
			"componentType":5126,
			"count":419,
			"type":"VEC3"
		},
		{
			"bufferView":90,
			"componentType":5126,
			"count":419,
			"type":"VEC2"
		},
		{
			"bufferView":91,
			"componentType":5123,
			"count":681,
			"type":"SCALAR"
		},
		{
			"bufferView":92,
			"componentType":5126,
			"count":104,
			"max":[
				1344,
				64,
				2887
			],
			"min":[
				-1728,
				-224,
				256
			],
			"type":"VEC3"
		},
		{
			"bufferView":93,
			"componentType":5126,
			"count":104,
			"type":"VEC3"
		},
		{
			"bufferView":94,
			"componentType":5126,
			"count":104,
			"type":"VEC2"
		},
		{
			"bufferView":95,
			"componentType":5123,
			"count":162,
			"type":"SCALAR"
		},
		{
			"bufferView":96,
			"componentType":5126,
			"count":144,
			"max":[
				1344,
				0,
				2887
			],
			"min":[
				-1728,
				-224,
				2320
			],
			"type":"VEC3"
		},
		{
			"bufferView":97,
			"componentType":5126,
			"count":144,
			"type":"VEC3"
		},
		{
			"bufferView":98,
			"componentType":5126,
			"count":144,
			"type":"VEC2"
		},
		{
			"bufferView":99,
			"componentType":5123,
			"count":216,
			"type":"SCALAR"
		},
		{
			"bufferView":100,
			"componentType":5126,
			"count":432,
			"max":[
				1288,
				100,
				2528
			],
			"min":[
				-1988,
				-192,
				140
			],
			"type":"VEC3"
		},
		{
			"bufferView":101,
			"componentType":5126,
			"count":432,
			"type":"VEC3"
		},
		{
			"bufferView":102,
			"componentType":5126,
			"count":432,
			"type":"VEC2"
		},
		{
			"bufferView":103,
			"componentType":5123,
			"count":648,
			"type":"SCALAR"
		},
		{
			"bufferView":104,
			"componentType":5126,
			"count":144,
			"max":[
				1286,
				98,
				2526
			],
			"min":[
				-1986,
				-166,
				142
			],
			"type":"VEC3"
		},
		{
			"bufferView":105,
			"componentType":5126,
			"count":144,
			"type":"VEC3"
		},
		{
			"bufferView":106,
			"componentType":5126,
			"count":144,
			"type":"VEC2"
		},
		{
			"bufferView":107,
			"componentType":5123,
			"count":216,
			"type":"SCALAR"
		},
		{
			"bufferView":108,
			"componentType":5126,
			"count":156,
			"max":[
				1792,
				128,
				3264
			],
			"min":[
				-2112,
				-256,
				-512
			],
			"type":"VEC3"
		},
		{
			"bufferView":109,
			"componentType":5126,
			"count":156,
			"type":"VEC3"
		},
		{
			"bufferView":110,
			"componentType":5126,
			"count":156,
			"type":"VEC2"
		},
		{
			"bufferView":111,
			"componentType":5123,
			"count":249,
			"type":"SCALAR"
		},
		{
			"bufferView":112,
			"componentType":5126,
			"count":443,
			"max":[
				256,
				104,
				3584
			],
			"min":[
				-2496,
				-384,
				1536
			],
			"type":"VEC3"
		},
		{
			"bufferView":113,
			"componentType":5126,
			"count":443,
			"type":"VEC3"
		},
		{
			"bufferView":114,
			"componentType":5126,
			"count":443,
			"type":"VEC2"
		},
		{
			"bufferView":115,
			"componentType":5123,
			"count":825,
			"type":"SCALAR"
		},
		{
			"bufferView":116,
			"componentType":5126,
			"count":375,
			"max":[
				1792,
				128,
				3264
			],
			"min":[
				-2176,
				-256,
				-640
			],
			"type":"VEC3"
		},
		{
			"bufferView":117,
			"componentType":5126,
			"count":375,
			"type":"VEC3"
		},
		{
			"bufferView":118,
			"componentType":5126,
			"count":375,
			"type":"VEC2"
		},
		{
			"bufferView":119,
			"componentType":5123,
			"count":693,
			"type":"SCALAR"
		},
		{
			"bufferView":120,
			"componentType":5126,
			"count":11,
			"max":[
				1792,
				-144,
				2304
			],
			"min":[
				-1840,
				-304,
				704
			],
			"type":"VEC3"
		},
		{
			"bufferView":121,
			"componentType":5126,
			"count":11,
			"type":"VEC3"
		},
		{
			"bufferView":122,
			"componentType":5126,
			"count":11,
			"type":"VEC2"
		},
		{
			"bufferView":123,
			"componentType":5123,
			"count":21,
			"type":"SCALAR"
		},
		{
			"bufferView":124,
			"componentType":5126,
			"count":12,
			"max":[
				1792,
				-144,
				2048
			],
			"min":[
				-1632,
				-304,
				704
			],
			"type":"VEC3"
		},
		{
			"bufferView":125,
			"componentType":5126,
			"count":12,
			"type":"VEC3"
		},
		{
			"bufferView":126,
			"componentType":5126,
			"count":12,
			"type":"VEC2"
		},
		{
			"bufferView":127,
			"componentType":5123,
			"count":24,
			"type":"SCALAR"
		},
		{
			"bufferView":128,
			"componentType":5126,
			"count":5,
			"max":[
				1248,
				-96,
				2496
			],
			"min":[
				1056,
				-96,
				2336
			],
			"type":"VEC3"
		},
		{
			"bufferView":129,
			"componentType":5126,
			"count":5,
			"type":"VEC3"
		},
		{
			"bufferView":130,
			"componentType":5126,
			"count":5,
			"type":"VEC2"
		},
		{
			"bufferView":131,
			"componentType":5123,
			"count":9,
			"type":"SCALAR"
		},
		{
			"bufferView":132,
			"componentType":5126,
			"count":15,
			"max":[
				1600,
				0,
				1536
			],
			"min":[
				512,
				-320,
				1408
			],
			"type":"VEC3"
		},
		{
			"bufferView":133,
			"componentType":5126,
			"count":15,
			"type":"VEC3"
		},
		{
			"bufferView":134,
			"componentType":5126,
			"count":15,
			"type":"VEC2"
		},
		{
			"bufferView":135,
			"componentType":5123,
			"count":33,
			"type":"SCALAR"
		},
		{
			"bufferView":136,
			"componentType":5126,
			"count":24,
			"max":[
				0.25,
				0.25,
				0.25
			],
			"min":[
				-0.25,
				-0.25,
				-0.25
			],
			"type":"VEC3"
		},
		{
			"bufferView":137,
			"componentType":5126,
			"count":24,
			"type":"VEC3"
		},
		{
			"bufferView":138,
			"componentType":5126,
			"count":24,
			"type":"VEC2"
		},
		{
			"bufferView":139,
			"componentType":5123,
			"count":36,
			"type":"SCALAR"
		}
	],
	"bufferViews":[
		{
			"buffer":0,
			"byteLength":1752,
			"byteOffset":0,
			"target":34962
		},
		{
			"buffer":0,
			"byteLength":1752,
			"byteOffset":1752,
			"target":34962
		},
		{
			"buffer":0,
			"byteLength":1168,
			"byteOffset":3504,
			"target":34962
		},
		{
			"buffer":0,
			"byteLength":492,
			"byteOffset":4672,
			"target":34963
		},
		{
			"buffer":0,
			"byteLength":264,
			"byteOffset":5164,
			"target":34962
		},
		{
			"buffer":0,
			"byteLength":264,
			"byteOffset":5428,
			"target":34962
		},
		{
			"buffer":0,
			"byteLength":176,
			"byteOffset":5692,
			"target":34962
		},
		{
			"buffer":0,
			"byteLength":72,
			"byteOffset":5868,
			"target":34963
		},
		{
			"buffer":0,
			"byteLength":108,
			"byteOffset":5940,
			"target":34962
		},
		{
			"buffer":0,
			"byteLength":108,
			"byteOffset":6048,
			"target":34962
		},
		{
			"buffer":0,
			"byteLength":72,
			"byteOffset":6156,
			"target":34962
		},
		{
			"buffer":0,
			"byteLength":48,
			"byteOffset":6228,
			"target":34963
		},
		{
			"buffer":0,
			"byteLength":1056,
			"byteOffset":6276,
			"target":34962
		},
		{
			"buffer":0,
			"byteLength":1056,
			"byteOffset":7332,
			"target":34962
		},
		{
			"buffer":0,
			"byteLength":704,
			"byteOffset":8388,
			"target":34962
		},
		{
			"buffer":0,
			"byteLength":288,
			"byteOffset":9092,
			"target":34963
		},
		{
			"buffer":0,
			"byteLength":4404,
			"byteOffset":9380,
			"target":34962
		},
		{
			"buffer":0,
			"byteLength":4404,
			"byteOffset":13784,
			"target":34962
		},
		{
			"buffer":0,
			"byteLength":2936,
			"byteOffset":18188,
			"target":34962
		},
		{
			"buffer":0,
			"byteLength":2088,
			"byteOffset":21124,
			"target":34963
		},
		{
			"buffer":0,
			"byteLength":576,
			"byteOffset":23212,
			"target":34962
		},
		{
			"buffer":0,
			"byteLength":576,
			"byteOffset":23788,
			"target":34962
		},
		{
			"buffer":0,
			"byteLength":384,
			"byteOffset":24364,
			"target":34962
		},
		{
			"buffer":0,
			"byteLength":192,
			"byteOffset":24748,
			"target":34963
		},
		{
			"buffer":0,
			"byteLength":84,
			"byteOffset":24940,
			"target":34962
		},
		{
			"buffer":0,
			"byteLength":84,
			"byteOffset":25024,
			"target":34962
		},
		{
			"buffer":0,
			"byteLength":56,
			"byteOffset":25108,
			"target":34962
		},
		{
			"buffer":0,
			"byteLength":30,
			"byteOffset":25164,
			"target":34963
		},
		{
			"buffer":0,
			"byteLength":144,
			"byteOffset":25196,
			"target":34962
		},
		{
			"buffer":0,
			"byteLength":144,
			"byteOffset":25340,
			"target":34962
		},
		{
			"buffer":0,
			"byteLength":96,
			"byteOffset":25484,
			"target":34962
		},
		{
			"buffer":0,
			"byteLength":66,
			"byteOffset":25580,
			"target":34963
		},
		{
			"buffer":0,
			"byteLength":168,
			"byteOffset":25648,
			"target":34962
		},
		{
			"buffer":0,
			"byteLength":168,
			"byteOffset":25816,
			"target":34962
		},
		{
			"buffer":0,
			"byteLength":112,
			"byteOffset":25984,
			"target":34962
		},
		{
			"buffer":0,
			"byteLength":30,
			"byteOffset":26096,
			"target":34963
		},
		{
			"buffer":0,
			"byteLength":60,
			"byteOffset":26128,
			"target":34962
		},
		{
			"buffer":0,
			"byteLength":60,
			"byteOffset":26188,
			"target":34962
		},
		{
			"buffer":0,
			"byteLength":40,
			"byteOffset":26248,
			"target":34962
		},
		{
			"buffer":0,
			"byteLength":18,
			"byteOffset":26288,
			"target":34963
		},
		{
			"buffer":0,
			"byteLength":35100,
			"byteOffset":26308,
			"target":34962
		},
		{
			"buffer":0,
			"byteLength":35100,
			"byteOffset":61408,
			"target":34962
		},
		{
			"buffer":0,
			"byteLength":23400,
			"byteOffset":96508,
			"target":34962
		},
		{
			"buffer":0,
			"byteLength":11826,
			"byteOffset":119908,
			"target":34963
		},
		{
			"buffer":0,
			"byteLength":264,
			"byteOffset":131736,
			"target":34962
		},
		{
			"buffer":0,
			"byteLength":264,
			"byteOffset":132000,
			"target":34962
		},
		{
			"buffer":0,
			"byteLength":176,
			"byteOffset":132264,
			"target":34962
		},
		{
			"buffer":0,
			"byteLength":108,
			"byteOffset":132440,
			"target":34963
		},
		{
			"buffer":0,
			"byteLength":168,
			"byteOffset":132548,
			"target":34962
		},
		{
			"buffer":0,
			"byteLength":168,
			"byteOffset":132716,
			"target":34962
		},
		{
			"buffer":0,
			"byteLength":112,
			"byteOffset":132884,
			"target":34962
		},
		{
			"buffer":0,
			"byteLength":30,
			"byteOffset":132996,
			"target":34963
		},
		{
			"buffer":0,
			"byteLength":372,
			"byteOffset":133028,
			"target":34962
		},
		{
			"buffer":0,
			"byteLength":372,
			"byteOffset":133400,
			"target":34962
		},
		{
			"buffer":0,
			"byteLength":248,
			"byteOffset":133772,
			"target":34962
		},
		{
			"buffer":0,
			"byteLength":126,
			"byteOffset":134020,
			"target":34963
		},
		{
			"buffer":0,
			"byteLength":156,
			"byteOffset":134148,
			"target":34962
		},
		{
			"buffer":0,
			"byteLength":156,
			"byteOffset":134304,
			"target":34962
		},
		{
			"buffer":0,
			"byteLength":104,
			"byteOffset":134460,
			"target":34962
		},
		{
			"buffer":0,
			"byteLength":66,
			"byteOffset":134564,
			"target":34963
		},
		{
			"buffer":0,
			"byteLength":2856,
			"byteOffset":134632,
			"target":34962
		},
		{
			"buffer":0,
			"byteLength":2856,
			"byteOffset":137488,
			"target":34962
		},
		{
			"buffer":0,
			"byteLength":1904,
			"byteOffset":140344,
			"target":34962
		},
		{
			"buffer":0,
			"byteLength":984,
			"byteOffset":142248,
			"target":34963
		},
		{
			"buffer":0,
			"byteLength":6924,
			"byteOffset":143232,
			"target":34962
		},
		{
			"buffer":0,
			"byteLength":6924,
			"byteOffset":150156,
			"target":34962
		},
		{
			"buffer":0,
			"byteLength":4616,
			"byteOffset":157080,
			"target":34962
		},
		{
			"buffer":0,
			"byteLength":3660,
			"byteOffset":161696,
			"target":34963
		},
		{
			"buffer":0,
			"byteLength":4680,
			"byteOffset":165356,
			"target":34962
		},
		{
			"buffer":0,
			"byteLength":4680,
			"byteOffset":170036,
			"target":34962
		},
		{
			"buffer":0,
			"byteLength":3120,
			"byteOffset":174716,
			"target":34962
		},
		{
			"buffer":0,
			"byteLength":1800,
			"byteOffset":177836,
			"target":34963
		},
		{
			"buffer":0,
			"byteLength":2904,
			"byteOffset":179636,
			"target":34962
		},
		{
			"buffer":0,
			"byteLength":2904,
			"byteOffset":182540,
			"target":34962
		},
		{
			"buffer":0,
			"byteLength":1936,
			"byteOffset":185444,
			"target":34962
		},
		{
			"buffer":0,
			"byteLength":810,
			"byteOffset":187380,
			"target":34963
		},
		{
			"buffer":0,
			"byteLength":72,
			"byteOffset":188192,
			"target":34962
		},
		{
			"buffer":0,
			"byteLength":72,
			"byteOffset":188264,
			"target":34962
		},
		{
			"buffer":0,
			"byteLength":48,
			"byteOffset":188336,
			"target":34962
		},
		{
			"buffer":0,
			"byteLength":24,
			"byteOffset":188384,
			"target":34963
		},
		{
			"buffer":0,
			"byteLength":52524,
			"byteOffset":188408,
			"target":34962
		},
		{
			"buffer":0,
			"byteLength":52524,
			"byteOffset":240932,
			"target":34962
		},
		{
			"buffer":0,
			"byteLength":35016,
			"byteOffset":293456,
			"target":34962
		},
		{
			"buffer":0,
			"byteLength":21126,
			"byteOffset":328472,
			"target":34963
		},
		{
			"buffer":0,
			"byteLength":9960,
			"byteOffset":349600,
			"target":34962
		},
		{
			"buffer":0,
			"byteLength":9960,
			"byteOffset":359560,
			"target":34962
		},
		{
			"buffer":0,
			"byteLength":6640,
			"byteOffset":369520,
			"target":34962
		},
		{
			"buffer":0,
			"byteLength":4326,
			"byteOffset":376160,
			"target":34963
		},
		{
			"buffer":0,
			"byteLength":5028,
			"byteOffset":380488,
			"target":34962
		},
		{
			"buffer":0,
			"byteLength":5028,
			"byteOffset":385516,
			"target":34962
		},
		{
			"buffer":0,
			"byteLength":3352,
			"byteOffset":390544,
			"target":34962
		},
		{
			"buffer":0,
			"byteLength":1362,
			"byteOffset":393896,
			"target":34963
		},
		{
			"buffer":0,
			"byteLength":1248,
			"byteOffset":395260,
			"target":34962
		},
		{
			"buffer":0,
			"byteLength":1248,
			"byteOffset":396508,
			"target":34962
		},
		{
			"buffer":0,
			"byteLength":832,
			"byteOffset":397756,
			"target":34962
		},
		{
			"buffer":0,
			"byteLength":324,
			"byteOffset":398588,
			"target":34963
		},
		{
			"buffer":0,
			"byteLength":1728,
			"byteOffset":398912,
			"target":34962
		},
		{
			"buffer":0,
			"byteLength":1728,
			"byteOffset":400640,
			"target":34962
		},
		{
			"buffer":0,
			"byteLength":1152,
			"byteOffset":402368,
			"target":34962
		},
		{
			"buffer":0,
			"byteLength":432,
			"byteOffset":403520,
			"target":34963
		},
		{
			"buffer":0,
			"byteLength":5184,
			"byteOffset":403952,
			"target":34962
		},
		{
			"buffer":0,
			"byteLength":5184,
			"byteOffset":409136,
			"target":34962
		},
		{
			"buffer":0,
			"byteLength":3456,
			"byteOffset":414320,
			"target":34962
		},
		{
			"buffer":0,
			"byteLength":1296,
			"byteOffset":417776,
			"target":34963
		},
		{
			"buffer":0,
			"byteLength":1728,
			"byteOffset":419072,
			"target":34962
		},
		{
			"buffer":0,
			"byteLength":1728,
			"byteOffset":420800,
			"target":34962
		},
		{
			"buffer":0,
			"byteLength":1152,
			"byteOffset":422528,
			"target":34962
		},
		{
			"buffer":0,
			"byteLength":432,
			"byteOffset":423680,
			"target":34963
		},
		{
			"buffer":0,
			"byteLength":1872,
			"byteOffset":424112,
			"target":34962
		},
		{
			"buffer":0,
			"byteLength":1872,
			"byteOffset":425984,
			"target":34962
		},
		{
			"buffer":0,
			"byteLength":1248,
			"byteOffset":427856,
			"target":34962
		},
		{
			"buffer":0,
			"byteLength":498,
			"byteOffset":429104,
			"target":34963
		},
		{
			"buffer":0,
			"byteLength":5316,
			"byteOffset":429604,
			"target":34962
		},
		{
			"buffer":0,
			"byteLength":5316,
			"byteOffset":434920,
			"target":34962
		},
		{
			"buffer":0,
			"byteLength":3544,
			"byteOffset":440236,
			"target":34962
		},
		{
			"buffer":0,
			"byteLength":1650,
			"byteOffset":443780,
			"target":34963
		},
		{
			"buffer":0,
			"byteLength":4500,
			"byteOffset":445432,
			"target":34962
		},
		{
			"buffer":0,
			"byteLength":4500,
			"byteOffset":449932,
			"target":34962
		},
		{
			"buffer":0,
			"byteLength":3000,
			"byteOffset":454432,
			"target":34962
		},
		{
			"buffer":0,
			"byteLength":1386,
			"byteOffset":457432,
			"target":34963
		},
		{
			"buffer":0,
			"byteLength":132,
			"byteOffset":458820,
			"target":34962
		},
		{
			"buffer":0,
			"byteLength":132,
			"byteOffset":458952,
			"target":34962
		},
		{
			"buffer":0,
			"byteLength":88,
			"byteOffset":459084,
			"target":34962
		},
		{
			"buffer":0,
			"byteLength":42,
			"byteOffset":459172,
			"target":34963
		},
		{
			"buffer":0,
			"byteLength":144,
			"byteOffset":459216,
			"target":34962
		},
		{
			"buffer":0,
			"byteLength":144,
			"byteOffset":459360,
			"target":34962
		},
		{
			"buffer":0,
			"byteLength":96,
			"byteOffset":459504,
			"target":34962
		},
		{
			"buffer":0,
			"byteLength":48,
			"byteOffset":459600,
			"target":34963
		},
		{
			"buffer":0,
			"byteLength":60,
			"byteOffset":459648,
			"target":34962
		},
		{
			"buffer":0,
			"byteLength":60,
			"byteOffset":459708,
			"target":34962
		},
		{
			"buffer":0,
			"byteLength":40,
			"byteOffset":459768,
			"target":34962
		},
		{
			"buffer":0,
			"byteLength":18,
			"byteOffset":459808,
			"target":34963
		},
		{
			"buffer":0,
			"byteLength":180,
			"byteOffset":459828,
			"target":34962
		},
		{
			"buffer":0,
			"byteLength":180,
			"byteOffset":460008,
			"target":34962
		},
		{
			"buffer":0,
			"byteLength":120,
			"byteOffset":460188,
			"target":34962
		},
		{
			"buffer":0,
			"byteLength":66,
			"byteOffset":460308,
			"target":34963
		},
		{
			"buffer":0,
			"byteLength":288,
			"byteOffset":460376,
			"target":34962
		},
		{
			"buffer":0,
			"byteLength":288,
			"byteOffset":460664,
			"target":34962
		},
		{
			"buffer":0,
			"byteLength":192,
			"byteOffset":460952,
			"target":34962
		},
		{
			"buffer":0,
			"byteLength":72,
			"byteOffset":461144,
			"target":34963
		}
	],
	"samplers":[
		{
			"magFilter":9729,
			"minFilter":9987
		}
	],
	"buffers":[
		{
			"byteLength":461216,
			"uri":"dust2.bin"
		}
	]
}
